<?xml version="1.0" encoding="utf-8"?>
<!-- Generator: Adobe Illustrator 26.5.0, SVG Export Plug-In . SVG Version: 6.00 Build 0)  -->
<svg version="1.1" id="Layer_1" xmlns="http://www.w3.org/2000/svg" xmlns:xlink="http://www.w3.org/1999/xlink" x="0px" y="0px"
	 viewBox="0 0 784 566" enable-background="new 0 0 784 566" xml:space="preserve">
<g opacity="0.16">
	<g>
		<path fill="#E4E4E4" d="M377.23,354l-13.88-3.53c-28.39-10.3-47.47-37.52-47.47-67.73c0-39.72,32.32-72.04,72.04-72.04v19.17
			c-29.15,0-52.86,23.71-52.86,52.86c0,19.19,10.49,36.74,26.82,46.02l2.98-18.52c-8.04-6.75-12.82-16.77-12.82-27.5
			c0-19.79,16.1-35.89,35.89-35.89c19.79,0,35.89,16.1,35.89,35.89c0,16.97-12.06,31.76-28.66,35.16l-3.84-18.78
			c7.73-1.58,13.33-8.47,13.33-16.38c0-9.22-7.5-16.71-16.71-16.71c-9.22,0-16.71,7.5-16.71,16.71c0,6.1,3.33,11.72,8.69,14.67
			l5.92,3.26L377.23,354z"/>
	</g>
	<g>
		<path fill="#E4E4E4" d="M440.81,272.41l-2.35-7.65c-5.33-17.34-19.75-29.94-38.56-33.72l3.78-18.8
			c23.03,4.63,41.32,19.07,50.27,39.29l15.66-1.87c-7.47-18.24-28.9-54.22-81.69-54.22c-18.79,0-36.68,5.87-51.75,16.99
			l-11.38-15.43c18.39-13.56,40.22-20.73,63.13-20.73c84.74,0,103.64,78.6,103.82,79.39l2.37,10.39L440.81,272.41z"/>
	</g>
	<g>
		<path fill="#E4E4E4" d="M302.17,395.97l-7-6.06c-15.61-13.52-28.31-30.6-36.7-49.39l17.5-7.82c6.01,13.44,14.56,25.88,24.99,36.4
			l10.96-11.81c-19.47-19.83-30.46-46.49-30.46-74.55c0-29.96,12.73-58.7,34.93-78.85l12.89,14.2
			c-18.2,16.52-28.64,40.09-28.64,64.65c0,25.76,11.3,50.08,31.01,66.72l7.68,6.48L302.17,395.97z"/>
	</g>
	<g>
		<path fill="#E4E4E4" d="M253.22,326.93c-4.66-14.23-7.03-29.09-7.03-44.19c0-9.61,0.97-19.22,2.88-28.56l18.78,3.85
			c-1.65,8.07-2.49,16.39-2.49,24.71c0,13.07,2.04,25.93,6.07,38.22L253.22,326.93z"/>
	</g>
	<g>
		<path fill="#E4E4E4" d="M271.01,245.85l-18.28-5.76C271.4,180.82,325.74,141,387.93,141c22.56,0,45.01,5.43,64.92,15.71
			l-8.79,17.04c-17.45-9.01-36.34-13.58-56.13-13.58C334.14,160.17,287.16,194.6,271.01,245.85z"/>
	</g>
	<g>
		<path fill="#E4E4E4" d="M502.33,420.69l-38.12-41.55l7-6.48c24.96-23.13,39.28-55.91,39.28-89.92
			c0-39.91-19.53-77.45-52.26-100.41l11.01-15.69c37.83,26.54,60.42,69.94,60.42,116.1c0,36.15-13.98,71.08-38.64,97.26l12.24,13.34
			c10.08-10.5,18.65-22.28,25.55-35.13l16.89,9.07c-9.42,17.55-21.64,33.32-36.3,46.88L502.33,420.69z"/>
	</g>
	<g>
		<path fill="#E4E4E4" d="M552.21,353.82l-17.59-7.62c6.9-15.93,11.12-32.8,12.55-50.16l19.11,1.57
			C564.68,317.06,559.94,335.97,552.21,353.82z"/>
	</g>
	<g>
		<path fill="#E4E4E4" d="M387.93,497.64v-19.17c107.93,0,195.73-87.8,195.73-195.73c0-18.51-2.55-31.53-6.96-47.77l-2.49-9.19
			l53.58-14.94l2.5,9.36c5.87,21.96,8.49,41.25,8.49,62.53c0,25.73-3.88,51.1-11.54,75.4l-18.29-5.76
			c7.07-22.44,10.65-45.88,10.65-69.65c0-16.46-1.72-31.66-5.5-48.17l-16.53,4.61c3.3,13.7,5.25,26.73,5.25,43.57
			C602.83,401.23,506.42,497.64,387.93,497.64z"/>
	</g>
	<g>
		<g>
			<path fill="#E4E4E4" d="M487.48,513.05l-7.62-17.59c54.4-23.55,97.31-66.49,120.83-120.91l17.6,7.61
				C592.84,441.06,546.38,487.55,487.48,513.05z"/>
		</g>
	</g>
	<g>
		<path fill="#E4E4E4" d="M387.93,533.58c-91.94,0-176.4-50.2-220.42-131.01l16.84-9.17C225,468.04,303.01,514.41,387.93,514.41
			c25.76,0,51.05-4.2,75.19-12.47l6.22,18.14C443.19,529.04,415.8,533.58,387.93,533.58z"/>
	</g>
	<g>
		<path fill="#E4E4E4" d="M159.54,386.64c-14.91-32.72-22.46-67.67-22.46-103.9c0-72.96,31.69-142.18,86.96-189.91l12.53,14.51
			c-51.04,44.09-80.32,108.02-80.32,175.4c0,33.47,6.98,65.75,20.74,95.95L159.54,386.64z"/>
	</g>
	<g>
		<path fill="#E4E4E4" d="M251.21,95.68l-11.32-15.47c9.86-7.22,20.33-13.77,31.12-19.46l8.95,16.96
			C269.99,82.96,260.32,89.01,251.21,95.68z"/>
	</g>
	<g>
		<path fill="#E4E4E4" d="M579.7,152.72C536.47,89.06,464.77,51.06,387.93,51.06c-30.45,0-60.04,5.81-87.95,17.28l-7.28-17.73
			c30.24-12.42,62.28-18.71,95.23-18.71c83.2,0,160.82,41.14,207.64,110.06L579.7,152.72z"/>
	</g>
	<g>
		<path fill="#E4E4E4" d="M573.72,219.56l-3.25-8.45c-13.66-35.53-37.1-65.99-67.79-88.09l11.2-15.56
			c31.28,22.52,55.7,52.94,71.05,88.37l15.71-5.03c-3.84-8.87-8.25-17.52-13.15-25.82l16.5-9.76c7.18,12.13,13.37,24.96,18.39,38.13
			l3.61,9.46L573.72,219.56z"/>
	</g>
	<g>
		<path fill="#E4E4E4" d="M489.28,114.2c-16.58-9.94-34.51-17.27-53.29-21.8l4.49-18.64c20.67,4.98,40.41,13.06,58.65,24
			L489.28,114.2z"/>
	</g>
	<g>
		<path fill="#E4E4E4" d="M366.91,496.62c-50.26-4.88-97.43-27.55-132.82-63.83c-35.46-36.35-56.95-84.18-60.52-134.69l19.12-1.35
			c6.75,95.51,80.8,171.55,176.07,180.8L366.91,496.62z"/>
	</g>
	<g>
		<g>
			<path fill="#E4E4E4" d="M192.2,282.74h-19.17c0-19.56,2.63-38.95,7.82-57.63l18.47,5.13C194.59,247.24,192.2,264.91,192.2,282.74
				z"/>
		</g>
	</g>
	<g>
		<path fill="#E4E4E4" d="M387.93,570.21v-25.65c144.38,0,261.83-117.46,261.83-261.83c0-24.77-3.41-42.18-9.3-63.9l-3.33-12.29
			l71.67-19.98l3.35,12.52c7.85,29.38,11.35,55.18,11.35,83.65c0,34.42-5.19,68.36-15.43,100.87l-24.46-7.7
			c9.45-30.02,14.25-61.37,14.25-93.17c0-22.02-2.29-42.36-7.35-64.44l-22.11,6.16c4.41,18.32,7.03,35.75,7.03,58.28
			C675.4,441.25,546.44,570.21,387.93,570.21z"/>
	</g>
	<g>
		<g>
			<path fill="#E4E4E4" d="M521.11,590.83l-10.19-23.54c72.78-31.5,130.18-88.94,161.64-161.74l23.54,10.17
				C662.05,494.54,599.9,556.72,521.11,590.83z"/>
		</g>
	</g>
	<g>
		<path fill="#E4E4E4" d="M387.93,618.3c-122.99,0-235.97-67.15-294.86-175.25l22.52-12.27c54.39,99.85,158.75,161.88,272.34,161.88
			c34.46,0,68.3-5.61,100.58-16.68l8.32,24.26C461.86,612.22,425.22,618.3,387.93,618.3z"/>
	</g>
	<g>
		<path fill="#E4E4E4" d="M82.41,421.73c-19.94-43.76-30.05-90.53-30.05-138.99c0-97.6,42.4-190.2,116.32-254.05l16.76,19.41
			c-68.28,58.97-107.44,144.5-107.44,234.64c0,44.77,9.33,87.95,27.74,128.36L82.41,421.73z"/>
	</g>
	<g>
		<path fill="#E4E4E4" d="M205.04,32.51l-15.15-20.69c13.19-9.66,27.2-18.42,41.63-26.04l11.97,22.68
			C230.16,15.49,217.23,23.58,205.04,32.51z"/>
	</g>
	<g>
		<path fill="#E4E4E4" d="M644.47,108.81C586.63,23.66,490.72-27.18,387.93-27.18c-40.73,0-80.31,7.78-117.65,23.11l-9.74-23.72
			c40.45-16.61,83.31-25.03,127.4-25.03c111.3,0,215.14,55.04,277.76,147.23L644.47,108.81z"/>
	</g>
	<g>
		<path fill="#E4E4E4" d="M636.46,198.22l-4.35-11.31c-18.27-47.53-49.63-88.28-90.68-117.84l14.98-20.81
			c41.84,30.13,74.52,70.82,95.05,118.22l21.01-6.73c-5.14-11.86-11.03-23.43-17.6-34.53l22.07-13.06
			c9.6,16.23,17.88,33.4,24.6,51.01l4.83,12.65L636.46,198.22z"/>
	</g>
	<g>
		<path fill="#E4E4E4" d="M257.98,644.75C125.3,597.12,29.41,480.92,7.74,341.5l29.05-4.52c20.02,128.78,108.58,236.11,231.12,280.1
			c37.17,13.34,75.85,20.39,114.97,20.95l-0.42,29.4C340.09,666.82,298.21,659.19,257.98,644.75z"/>
	</g>
	<g>
		<path fill="#E4E4E4" d="M4.51,314.37c-4.57-54.94,2.64-109.3,21.4-161.58C63.71,47.5,145.31-35.98,249.78-76.24l10.57,27.43
			C163.85-11.62,88.49,65.47,53.58,162.72c-17.34,48.3-23.99,98.5-19.78,149.22L4.51,314.37z"/>
	</g>
	<g>
		<path fill="#E4E4E4" d="M287.52-58.04l-8.33-28.19c17.97-5.31,36.48-9.34,55-11.97l4.13,29.11
			C321.22-66.66,304.13-62.94,287.52-58.04z"/>
	</g>
	<g>
		<path fill="#E4E4E4" d="M750.61,154.62l-27.74,8.89l-5.19-13.49C695.86,93.29,659.9,41.46,610.91,6.18
			c-30.44-24.54-65.14-44.21-102.98-57.79C464-67.39,418.29-74.33,372.07-72.24l-1.33-29.36c50.07-2.26,99.58,5.25,147.14,22.32
			c40.74,14.63,78.11,35.75,110.94,62.13c0.02,0.01,0.03,0.02,0.04,0.04C684.13,27.29,726.54,86.55,750.61,154.62z"/>
	</g>
	<g>
		<path fill="#E4E4E4" d="M395.19,667.43v-30.44c187.99,0,340.93-166.26,340.93-354.25c0-32.25-4.44-54.93-12.11-83.2l-4.34-16
			l93.32-26.02l4.36,16.31c10.22,38.26,14.78,71.85,14.78,108.92c0,44.81-6.76,89-20.09,131.34l-31.85-10.03
			c12.31-39.09,18.55-79.91,18.55-121.31c0-28.68-2.99-55.15-9.58-83.91l-28.79,8.02c5.74,23.86,9.15,46.55,9.15,75.89
			C769.51,489.14,601.59,667.43,395.19,667.43z"/>
	</g>
	<g>
		<g>
			<path fill="#E4E4E4" d="M561.34,683.9l-13.26-30.65c94.76-41.02,169.51-115.81,210.47-210.6l30.65,13.25
				C744.85,558.52,663.93,639.49,561.34,683.9z"/>
		</g>
	</g>
	<g>
		<path fill="#E4E4E4" d="M387.93,719.67c-160.14,0-307.25-87.44-383.94-228.19l29.33-15.98
			c70.83,130.01,206.71,210.78,354.61,210.78c44.86,0,88.93-7.31,130.97-21.72l10.83,31.59
			C484.19,711.75,436.48,719.67,387.93,719.67z"/>
	</g>
	<g>
		<path fill="#E4E4E4" d="M-9.88,463.71c-25.96-56.98-39.13-117.87-39.13-180.98c0-127.08,55.21-247.65,151.46-330.79l21.83,25.27
			C35.38,54.01-15.61,165.36-15.61,282.74c0,58.29,12.15,114.52,36.13,167.13L-9.88,463.71z"/>
	</g>
	<g>
		<path fill="#E4E4E4" d="M149.79-43.08l-19.73-26.95c17.18-12.58,35.42-23.99,54.21-33.9l15.59,29.53
			C182.51-65.24,165.66-54.7,149.79-43.08z"/>
	</g>
	<g>
		<path fill="#E4E4E4" d="M721.97,56.27C646.66-54.61,521.78-120.8,387.93-120.8c-53.03,0-104.57,10.12-153.19,30.09l-12.69-30.89
			c52.67-21.63,108.48-32.59,165.88-32.59c144.93,0,280.13,71.66,361.67,191.7L721.97,56.27z"/>
	</g>
	<g>
		<path fill="#E4E4E4" d="M806.31,136.78l-55.7,17.85l-27.74,8.89l-5.19-13.49C695.86,93.29,659.9,41.46,610.91,6.18l17.9-23.33
			c0.02,0.01,0.03,0.02,0.04,0.04c49.92,35.94,87.42,86.19,111.91,142.74l25.08-8.03c-6.13-14.16-13.17-27.97-21.01-41.22
			l26.34-15.58c11.46,19.37,21.34,39.85,29.36,60.88L806.31,136.78z"/>
	</g>
	<g>
		<g>
			<path fill="#E4E4E4" d="M359.81,568.86c-67.23-6.53-130.33-36.85-177.68-85.39c-47.43-48.62-76.19-112.61-80.96-180.18
				l25.58-1.81c9.03,127.77,108.08,229.48,235.54,241.86L359.81,568.86z"/>
		</g>
		<g>
			<g>
				<path fill="#E4E4E4" d="M126.09,282.74h-25.65c0-26.17,3.52-52.11,10.46-77.1l24.71,6.86
					C129.3,235.26,126.09,258.89,126.09,282.74z"/>
			</g>
		</g>
	</g>
	<g>
		<g>
			<path fill="#E4E4E4" d="M114.76,190.76c20.93-64.22,64.2-119.26,121.84-154.98C294.33,0,363.03-14.21,430.03-4.24l-3.77,25.37
				C299.57,2.28,178.82,76.96,139.14,198.71L114.76,190.76z"/>
		</g>
		<g>
			<g>
				<path fill="#E4E4E4" d="M444.69,24.54l5.55-25.04c25.55,5.67,50.11,14.72,73,26.9L511.2,49.04
					C490.35,37.95,467.97,29.7,444.69,24.54z"/>
			</g>
		</g>
	</g>
	<g>
		<path fill="#E4E4E4" d="M205.69,211.18l-17.84-7.01c28.9-73.53,95.47-125.16,173.73-134.73l10.16-1.24l3.08,54.86l-8.91,1.09
			c-28.34,3.47-55.09,14.59-77.38,32.18l-11.88-15.05c22.7-17.91,49.51-29.86,78.03-34.84l-0.92-16.45
			C286.91,101.72,230.75,147.4,205.69,211.18z"/>
	</g>
	<g>
		<path fill="#E4E4E4" d="M254.73,402.26c-29.51-32.87-45.77-75.32-45.77-119.53c0-49.61,19.19-95.6,54.04-129.5l13.37,13.74
			c-31.11,30.26-48.24,71.37-48.24,115.76c0,39.47,14.51,77.37,40.86,106.72L254.73,402.26z"/>
	</g>
	<g>
		<path fill="#E4E4E4" d="M387.93,461.7c-46.95,0-91.32-18.05-124.93-50.82l13.38-13.73c30.01,29.26,69.62,45.38,111.54,45.38
			c27.22,0,53.76-6.87,77.35-19.93l-10.02-14.06c-17.31,9.65-36.12,14.69-58.41,15.74l-0.9-19.15c22.17-1.04,40.19-6.58,56.71-17.41
			l7.71-5.06l32.41,45.49l-8.49,5.43C455.53,451.97,422.21,461.7,387.93,461.7z"/>
	</g>
	<g>
		<path fill="#E4E4E4" d="M387.93,424.47c-23.37,0-46.54-5.81-67-16.81l-10.26-5.51l34.08-41.58l6.49,2.55
			c0.16,0.07,17.93,6.9,36.68,6.9c45.35,0,81.6-32.01,86.68-74.57l-15.22,1.06c-4.43,33.78-33.66,58.26-71.45,58.26V335.6
			c30.63,0,52.86-20.22,52.86-48.07v-8.94l53.6-3.73v10.28c0,58.35-46.76,104.06-106.46,104.06c-14.98,0-29.02-3.51-36.97-5.94
			l-10.32,12.59c14.89,6.21,31.03,9.46,47.29,9.46V424.47z"/>
	</g>
	<g>
		<path fill="#E4E4E4" d="M515.73,156.26c-24.58-25.07-55.4-41.76-89.11-48.75l-3.75,18.73c72.13,14.83,124.84,78.26,124.84,156.5
			h19.17C566.89,234.82,548.72,189.9,515.73,156.26z"/>
		<path fill="#E4E4E4" d="M418.07,105.95c-5.98-0.93-12.04-1.6-18.16-1.92V87.24c6.96,0.34,13.88,1.04,20.68,2.1l2.96-18.94
			c-10.89-1.7-22.07-2.56-33.22-2.56h-9.59v55.11h9.59c8.61,0,17.02,0.69,25.22,1.97L418.07,105.95z"/>
	</g>
</g>
</svg>
